<svg width="37" height="37" viewBox="0 0 37 37" fill="none" xmlns="http://www.w3.org/2000/svg">
<path opacity="0.3" d="M37 18.5C37 23.4065 35.0509 28.1121 31.5815 31.5815C28.1121 35.0509 23.4065 37 18.5 37C13.5935 37 8.88795 35.0509 5.41852 31.5815C1.9491 28.1121 0 23.4065 0 18.5C0 13.5935 1.9491 8.88795 5.41852 5.41852C8.88795 1.9491 13.5935 0 18.5 0C23.4065 0 28.1121 1.9491 31.5815 5.41852C35.0509 8.88795 37 13.5935 37 18.5ZM19 8.09375C19 7.78709 18.8782 7.493 18.6613 7.27616C18.4445 7.05932 18 6.88 17.3438 6.88C16.6875 6.88 16.3634 7.05932 16.1465 7.27616C15.9297 7.493 15.8079 7.78709 15.8079 8.09375V20.8125C15.8079 21.0163 15.8619 21.2165 15.9642 21.3927C16.0666 21.569 16.2137 21.715 16.3906 21.8161L24.2656 26.4646C24.6016 26.7 25.2097 26.7829 25.5 26.7C25.9161 26.5812 26.3332 26.3299 26.5218 26C26.7103 25.6701 26.5978 24.9912 26.5218 24.699C26.4458 24.4068 26.2585 24.156 26 24L19 20V8.09375Z" fill="#01FFA5"/>
</svg>
