<svg width="327" height="368" viewBox="0 0 327 368" fill="none" xmlns="http://www.w3.org/2000/svg">
<path d="M12.9791 103.159L163.224 16.381L314.515 104.382L183.474 174.163L163.224 215.774L141.771 175.598L12.9791 103.159Z" fill="white"/>
<path d="M133.626 353.991L12.9792 281.029L12.6539 103.195L141.771 175.598L163.224 215.774V334.561L133.626 353.991Z" fill="#00FFA5"/>
<path d="M192.786 353.715L312.273 281.552L312.075 103.958L183.375 174.884L163.132 216.495V335.282L192.786 353.715Z" fill="#3FD89D"/>
<path d="M102.635 223.127L63.0677 198.946V247.839L101.971 271.809L119.145 257.908L102.635 223.127Z" fill="#1A1A1A"/>
<path d="M223.232 223.127L312.273 168.874V217.527L223.897 271.809L206.715 257.908L223.232 223.127Z" fill="#1A1A1A"/>
<path d="M163.627 0.394226H163.542L0.584229 94.5118L0.732712 286.049L134.078 367.362L163.598 348.426L193.111 367.362L326.436 286.049L326.584 94.4835L163.627 0.394226ZM308.059 275.995L193.21 345.916L163.584 326.762L133.958 345.916L19.1094 275.995L18.975 105.365L163.584 21.8395L308.193 105.365L308.059 275.995Z" fill="#1A1A1A"/>
</svg>
