<svg width="37" height="37" viewBox="0 0 37 37" fill="none" xmlns="http://www.w3.org/2000/svg">
<path fill-rule="evenodd" clip-rule="evenodd" d="M18.5 0C8.28295 0 0 8.28295 0 18.5C0 28.717 8.28295 37 18.5 37C28.717 37 37 28.717 37 18.5C37 8.28295 28.717 0 18.5 0ZM11.7727 16.8182C11.3267 16.8182 10.8989 16.9954 10.5835 17.3108C10.2681 17.6262 10.0909 18.054 10.0909 18.5C10.0909 18.946 10.2681 19.3738 10.5835 19.6892C10.8989 20.0046 11.3267 20.1818 11.7727 20.1818H25.2273C25.6733 20.1818 26.1011 20.0046 26.4165 19.6892C26.7319 19.3738 26.9091 18.946 26.9091 18.5C26.9091 18.054 26.7319 17.6262 26.4165 17.3108C26.1011 16.9954 25.6733 16.8182 25.2273 16.8182H11.7727Z" fill="#7D8C8B"/>
</svg>
