<svg width="13" height="13" viewBox="0 0 37 37" fill="none" xmlns="http://www.w3.org/2000/svg">
<path fill-rule="evenodd" clip-rule="evenodd" d="M18.5 0.537735C8.57583 0.537735 0.53772 8.77916 0.53772 18.9543C0.53772 27.1037 5.67942 33.9869 12.8194 36.4271C13.7175 36.5882 14.0543 36.0357 14.0543 35.5523C14.0543 35.1149 14.0319 33.6646 14.0319 32.1222C9.51885 32.974 8.35131 30.9942 7.99206 29.9583C7.78998 29.4288 6.91432 27.7943 6.15093 27.3569C5.52225 27.0116 4.62413 26.1598 6.12847 26.1368C7.543 26.1138 8.55338 27.472 8.89017 28.0245C10.5068 30.81 13.0889 30.0273 14.1217 29.5439C14.2789 28.3468 14.7504 27.5411 15.2668 27.0807C11.2702 26.6202 7.09395 25.0318 7.09395 17.9875C7.09395 15.9847 7.78998 14.3272 8.93508 13.038C8.75546 12.5776 8.12678 10.6899 9.1147 8.1576C9.1147 8.1576 10.619 7.67417 14.0543 10.0453C15.4913 9.63093 17.0181 9.42374 18.5449 9.42374C20.0717 9.42374 21.5985 9.63093 23.0355 10.0453C26.4707 7.65115 27.9751 8.1576 27.9751 8.1576C28.963 10.6899 28.3343 12.5776 28.1547 13.038C29.2998 14.3272 29.9958 15.9616 29.9958 17.9875C29.9958 25.0548 25.7972 26.6202 21.8006 27.0807C22.4517 27.6562 23.013 28.7612 23.013 30.4877C23.013 32.951 22.9906 34.9307 22.9906 35.5523C22.9906 36.0357 23.3273 36.6112 24.2255 36.4271C27.7912 35.1927 30.8897 32.843 33.0848 29.7087C35.28 26.5743 36.4612 22.8131 36.4622 18.9543C36.4622 8.77916 28.4241 0.537735 18.5 0.537735Z" fill="#283130"/>
</svg>
