<svg width="133" height="133" viewBox="0 0 133 133" fill="none" xmlns="http://www.w3.org/2000/svg">
<path d="M0.141313 69.2764C1.61263 104.65 30.7687 133 66.5 133C102.231 133 131.387 104.65 132.859 69.2764C132.946 69.0537 132.994 68.8173 133 68.5781C133 68.4285 132.946 68.2997 132.917 68.1625C132.929 67.6056 133 67.0611 133 66.5C133 29.8336 103.166 0 66.5 0C29.8336 0 0 29.8336 0 66.5C0 67.0611 0.0706562 67.6056 0.083125 68.1625C0.0540312 68.2997 0 68.4285 0 68.5781C0 68.8275 0.0623438 69.0561 0.141313 69.2764ZM103.578 94.5214C97.9304 92.1772 92.0613 90.4074 86.0593 89.2388C86.716 83.1998 87.1025 76.928 87.2231 70.6604H107.921C107.543 79.1973 106.026 87.2563 103.578 94.5214ZM112.073 70.6562H128.632C127.899 81.9723 124.07 92.8692 117.564 102.156C114.331 99.8819 110.916 97.88 107.352 96.1715C110.033 88.4034 111.683 79.7834 112.073 70.6562ZM51.4918 92.6262C56.4563 91.843 61.4741 91.4456 66.5 91.4375C71.5872 91.4375 76.6122 91.8614 81.5041 92.6262C78.6196 114.8 72.3187 128.844 66.5 128.844C60.6813 128.844 54.3804 114.8 51.4918 92.6262ZM57.8051 127.447C46.3713 123.781 36.6997 113.021 30.8643 98.42C36.2094 96.1844 41.7649 94.4899 47.4478 93.3618C49.3555 107.892 52.8426 120.552 57.8051 127.447ZM51.0138 44.5093C56.1374 45.3073 61.3146 45.7116 66.5 45.7188C71.6854 45.7116 76.8626 45.3073 81.9862 44.5093C82.7011 51.2424 83.125 58.5907 83.125 66.5H49.875C49.875 58.5907 50.2989 51.2424 51.0138 44.5093ZM83.0627 70.6562C82.9634 76.614 82.6029 82.5646 81.982 88.4907C76.8599 87.6924 71.684 87.2881 66.5 87.2812C61.3146 87.2882 56.1374 87.6926 51.0138 88.4907C50.3911 82.5647 50.0305 76.6141 49.9332 70.6562H83.0627ZM85.5564 93.3618C91.3918 94.5339 96.957 96.238 102.14 98.42C96.3045 113.021 86.6329 123.781 75.199 127.447C80.1574 120.552 83.6445 107.892 85.5564 93.3618ZM87.2812 66.5C87.2812 58.8691 86.8573 51.1385 86.0593 43.7653C92.2106 42.5517 98.0958 40.7728 103.578 38.4827C106.421 46.9157 108.062 56.4169 108.062 66.5H87.2812ZM85.5564 39.6382C83.6445 25.1079 80.1616 12.4438 75.1949 5.55275C86.6287 9.21856 96.3003 19.9791 102.136 34.58C96.7927 36.8174 91.2384 38.512 85.5564 39.6382ZM81.5082 40.3738C76.6122 41.1386 71.5872 41.5625 66.5 41.5625C61.4128 41.5625 56.3878 41.1386 51.4918 40.3738C54.3804 18.2002 60.6813 4.15625 66.5 4.15625C72.3187 4.15625 78.6196 18.2002 81.5082 40.3738ZM47.4436 39.6382C41.7609 38.5095 36.2054 36.815 30.8602 34.58C36.6955 19.9791 46.3671 9.21856 57.801 5.55275C52.8426 12.448 49.3555 25.1079 47.4436 39.6382ZM46.9407 43.7653C46.1289 51.3164 45.721 58.9054 45.7188 66.5H24.9375C24.9375 56.4169 26.5792 46.9158 29.4221 38.4786C34.9042 40.7728 40.7894 42.5475 46.9407 43.7653ZM45.7769 70.6562C45.8975 76.9239 46.284 83.1957 46.9407 89.2388C40.7894 90.4525 34.9042 92.2313 29.4221 94.5214C26.9741 87.2563 25.457 79.1973 25.0788 70.6562H45.7769ZM25.6441 96.1715C22.0823 97.8816 18.6681 99.8835 15.4363 102.156C8.92918 92.8695 5.10031 81.9724 4.36822 70.6562H20.9267C21.3174 79.7834 22.9674 88.4034 25.6441 96.1715ZM17.9259 105.486C20.8347 103.437 23.902 101.623 27.0987 100.062C31.2716 110.39 37.2774 118.964 44.4968 124.762C34.0817 120.817 24.9088 114.162 17.9259 105.486ZM88.5032 124.758C95.7268 118.964 101.728 110.386 105.901 100.058C109.185 101.654 112.227 103.491 115.074 105.481C108.094 114.16 98.92 120.816 88.5032 124.758ZM112.219 66.5C112.219 55.8309 110.44 45.7728 107.356 36.8285C111.013 35.0746 114.413 33.0588 117.568 30.8435C124.909 41.2843 128.847 53.7369 128.844 66.5H112.219ZM115.078 27.5144C112.231 29.5052 109.189 31.3423 105.905 32.9383C101.733 22.61 95.7268 14.0315 88.5073 8.23769C98.9213 12.1853 108.094 18.8397 115.078 27.5144ZM44.4968 8.24184C37.2733 14.0357 31.2716 22.6142 27.0987 32.9424C23.9023 31.3787 20.835 29.5637 17.9259 27.5144C24.9079 18.8379 34.0812 12.1844 44.4968 8.24184ZM15.4363 30.8435C18.6675 33.1174 22.0818 35.1193 25.6441 36.8285C22.3935 46.3821 20.7503 56.4087 20.7812 66.5H4.15625C4.15625 53.2416 8.34991 40.9598 15.4363 30.8435Z" fill="url(#paint0_linear)"/>
<defs>
<linearGradient id="paint0_linear" x1="66.5" y1="0" x2="66.5" y2="133" gradientUnits="userSpaceOnUse">
<stop stop-color="#17C586"/>
<stop offset="0.161445" stop-color="#13D690"/>
<stop offset="0.484374" stop-color="#00FFA5"/>
<stop offset="0.833347" stop-color="#13D690"/>
<stop offset="1" stop-color="#17C586"/>
</linearGradient>
</defs>
</svg>
