<svg width="231" height="277" viewBox="0 0 231 277" fill="none" xmlns="http://www.w3.org/2000/svg">
<path d="M214.049 239.515V20.3839C214.05 20.0396 213.983 19.6984 213.852 19.38C213.721 19.0616 213.528 18.7722 213.285 18.5284C213.042 18.2846 212.753 18.0911 212.435 17.9591C212.117 17.8272 211.776 17.7592 211.432 17.7592H29.0674C28.3733 17.7601 27.7079 18.0359 27.2167 18.5262C26.7273 19.0209 26.4518 19.6881 26.4497 20.3839V235.152H143.759C143.759 235.152 148.608 276.986 182.539 276.986C215.928 276.986 214.049 239.515 214.049 239.515Z" fill="url(#paint0_linear_505:101)"/>
<path d="M70.7952 202.903C66.4591 202.896 62.2549 204.394 58.8992 207.14C55.5435 209.886 53.244 213.711 52.3926 217.963C51.5412 222.214 52.1907 226.63 54.2303 230.456C56.2699 234.283 59.5734 237.283 63.5778 238.947C67.5821 240.61 72.0394 240.834 76.19 239.579C80.3405 238.324 83.9274 235.668 86.3393 232.065C88.7511 228.462 89.8387 224.133 89.4166 219.818C88.9944 215.502 87.0887 211.467 84.0243 208.399C82.2899 206.657 80.2284 205.274 77.9581 204.331C75.6879 203.388 73.2536 202.903 70.7952 202.903ZM66.5099 230.297L60.5005 222.416L62.4285 220.931L66.7773 226.617L79.3097 214.035L81.0267 215.752L66.5099 230.297Z" fill="#3FD89D"/>
<path d="M144.477 237.01C144.38 236.485 144.104 236.01 143.696 235.666C143.287 235.32 142.768 235.133 142.232 235.138H2.27149C1.94675 235.136 1.62532 235.204 1.32856 235.335C1.03623 235.471 0.775558 235.666 0.563431 235.908C0.351303 236.151 0.192443 236.435 0.0971309 236.743C0.00358774 237.057 -0.0227832 237.388 0.0197269 237.714C1.25116 246.862 7.33091 277 33.6694 277H182.94C153.386 276.986 145.906 245.173 144.477 237.01Z" fill="url(#paint1_linear_505:101)"/>
<path d="M187.676 48.8336H52.9149" stroke="#246351" stroke-width="6.94" stroke-miterlimit="10"/>
<path d="M187.676 69.2682H52.9149" stroke="#246351" stroke-width="6.94" stroke-miterlimit="10"/>
<path d="M187.676 89.6959H52.9149" stroke="#246351" stroke-width="6.94" stroke-miterlimit="10"/>
<path d="M187.676 110.131H52.9149" stroke="#246351" stroke-width="6.94" stroke-miterlimit="10"/>
<path d="M187.676 130.558H52.9149" stroke="#246351" stroke-width="6.94" stroke-miterlimit="10"/>
<path d="M187.676 151.204L52.9149 150.775" stroke="#246351" stroke-width="6.94" stroke-miterlimit="10"/>
<path d="M187.676 171.421H52.9149" stroke="#246351" stroke-width="6.94" stroke-miterlimit="10"/>
<path d="M187.676 191.855H52.9149" stroke="#246351" stroke-width="6.94" stroke-miterlimit="10"/>
<path d="M187.676 212.283H103.812" stroke="#246351" stroke-width="6.94" stroke-miterlimit="10"/>
<path d="M188.457 79.4786C195.825 79.5064 203.036 77.3468 209.176 73.2732C215.317 69.1996 220.11 63.3953 222.948 56.5955C225.787 49.7957 226.544 42.3064 225.123 35.0761C223.702 27.8459 220.167 21.2 214.966 15.9802C209.765 10.7605 203.132 7.20176 195.907 5.7548C188.682 4.30784 181.19 5.03775 174.38 7.85207C167.57 10.6664 161.749 15.4385 157.653 21.564C153.557 27.6894 151.372 34.8926 151.373 42.2612C151.356 52.1139 155.254 61.5697 162.208 68.5492C169.162 75.5286 178.604 79.4599 188.457 79.4786Z" fill="#D4FCEA" stroke="#3FD89D" stroke-width="9.71" stroke-miterlimit="10"/>
<path d="M197.921 22.5723C195.648 20.1657 192.461 18.9413 188.457 18.9413C184.453 18.9413 181.272 20.1657 178.999 22.5723C175.382 26.4073 175.481 31.8749 175.481 32.5504V47.8835H179.161V32.4026C179.161 32.3534 178.978 27.9202 181.666 25.0844C183.214 23.4589 185.494 22.6286 188.429 22.6286C191.363 22.6286 193.65 23.4589 195.198 25.0844C197.872 27.8991 197.703 32.3534 197.703 32.3956V47.8764H201.383V32.5504C201.447 31.8819 201.538 26.4073 197.921 22.5723Z" fill="url(#paint2_linear_505:101)"/>
<path d="M204.191 41.5997H172.73C172.682 41.5997 172.634 41.6092 172.59 41.6276C172.545 41.646 172.505 41.6729 172.471 41.7069C172.437 41.7409 172.41 41.7812 172.391 41.8256C172.373 41.87 172.364 41.9176 172.364 41.9656V65.1869C172.364 65.284 172.402 65.377 172.471 65.4456C172.539 65.5143 172.633 65.5528 172.73 65.5528H204.191C204.239 65.5528 204.286 65.5433 204.33 65.5248C204.374 65.5064 204.414 65.4793 204.447 65.4452C204.481 65.4112 204.507 65.3708 204.524 65.3264C204.542 65.282 204.551 65.2346 204.55 65.1869V41.9656C204.551 41.9179 204.542 41.8705 204.524 41.8261C204.507 41.7818 204.481 41.7414 204.447 41.7073C204.414 41.6732 204.374 41.6462 204.33 41.6277C204.286 41.6092 204.239 41.5997 204.191 41.5997Z" fill="url(#paint3_linear_505:101)"/>
<defs>
<linearGradient id="paint0_linear_505:101" x1="120.264" y1="276.993" x2="120.264" y2="17.7663" gradientUnits="userSpaceOnUse">
<stop stop-color="#E4E4E4"/>
<stop offset="0.07" stop-color="#E6E6E6"/>
<stop offset="0.14" stop-color="#E8E8E8"/>
<stop offset="0.25" stop-color="#E8E8E8"/>
<stop offset="0.36" stop-color="#EFEFEF"/>
<stop offset="0.63" stop-color="#F0F0F0"/>
<stop offset="0.65" stop-color="#F0F0F0"/>
<stop offset="1" stop-color="#F0F0F0"/>
</linearGradient>
<linearGradient id="paint1_linear_505:101" x1="91.4834" y1="277.007" x2="91.4834" y2="235.152" gradientUnits="userSpaceOnUse">
<stop offset="0.07" stop-color="#E8E8E8"/>
<stop offset="0.12" stop-color="#EAEAEA"/>
<stop offset="0.55" stop-color="#F5F5F5"/>
<stop offset="1" stop-color="#F9F9F9"/>
</linearGradient>
<linearGradient id="paint2_linear_505:101" x1="188.457" y1="47.8905" x2="188.457" y2="18.9413" gradientUnits="userSpaceOnUse">
<stop stop-color="#9B9B9B"/>
<stop offset="0.24" stop-color="#A1A1A1"/>
<stop offset="0.49" stop-color="#A7A7A7"/>
<stop offset="0.76" stop-color="#ADADAD"/>
<stop offset="0.99" stop-color="#B3B3B3"/>
</linearGradient>
<linearGradient id="paint3_linear_505:101" x1="172.364" y1="53.5903" x2="204.557" y2="53.5903" gradientUnits="userSpaceOnUse">
<stop stop-color="#D5B600"/>
<stop offset="0.2" stop-color="#DEBE00"/>
<stop offset="0.5" stop-color="#DBBC00"/>
<stop offset="0.8" stop-color="#DEBE00"/>
<stop offset="1" stop-color="#D5B600"/>
</linearGradient>
</defs>
</svg>
