<svg width="37" height="37" viewBox="0 0 37 37" fill="none" xmlns="http://www.w3.org/2000/svg">
<path opacity="0.3" fill-rule="evenodd" clip-rule="evenodd" d="M5.41852 31.5815C3.70064 29.8636 2.33794 27.8242 1.40823 25.5796C0.478517 23.3351 1.81009e-08 20.9295 0 18.5C-1.81008e-08 16.0705 0.478517 13.6649 1.40823 11.4204C2.33794 9.17583 3.70064 7.13641 5.41852 5.41852C7.13641 3.70064 9.17583 2.33794 11.4204 1.40823C13.6649 0.478517 16.0705 -1.81008e-08 18.5 0C20.9295 1.81008e-08 23.3351 0.478517 25.5796 1.40823C27.8242 2.33794 29.8636 3.70064 31.5815 5.41852C35.0509 8.88795 37 13.5935 37 18.5C37 23.4065 35.0509 28.1121 31.5815 31.5815C28.1121 35.0509 23.4065 37 18.5 37C13.5935 37 8.88795 35.0509 5.41852 31.5815ZM13.9445 11.4933C13.6157 11.187 13.1809 11.0202 12.7316 11.0281C12.2823 11.036 11.8536 11.218 11.5358 11.5358C11.218 11.8536 11.036 12.2823 11.0281 12.7316C11.0202 13.1809 11.187 13.6157 11.4933 13.9445L16.0488 18.5L11.4933 23.0555C11.3229 23.2143 11.1862 23.4058 11.0914 23.6185C10.9967 23.8312 10.9457 24.0609 10.9416 24.2938C10.9375 24.5266 10.9803 24.7579 11.0675 24.9739C11.1548 25.1899 11.2846 25.386 11.4493 25.5507C11.614 25.7154 11.8101 25.8452 12.0261 25.9325C12.2421 26.0197 12.4734 26.0625 12.7062 26.0584C12.9391 26.0543 13.1688 26.0033 13.3815 25.9086C13.5942 25.8138 13.7857 25.6771 13.9445 25.5067L18.5 20.9512L23.0555 25.5067C23.2143 25.6771 23.4058 25.8138 23.6185 25.9086C23.8312 26.0033 24.0609 26.0543 24.2938 26.0584C24.5266 26.0625 24.7579 26.0197 24.9739 25.9325C25.1899 25.8452 25.386 25.7154 25.5507 25.5507C25.7154 25.386 25.8452 25.1899 25.9325 24.9739C26.0197 24.7579 26.0625 24.5266 26.0584 24.2938C26.0543 24.0609 26.0033 23.8312 25.9086 23.6185C25.8138 23.4058 25.6771 23.2143 25.5067 23.0555L20.9512 18.5L25.5067 13.9445C25.6771 13.7857 25.8138 13.5942 25.9086 13.3815C26.0033 13.1688 26.0543 12.9391 26.0584 12.7062C26.0625 12.4734 26.0197 12.2421 25.9325 12.0261C25.8452 11.8101 25.7154 11.614 25.5507 11.4493C25.386 11.2846 25.1899 11.1548 24.9739 11.0675C24.7579 10.9803 24.5266 10.9375 24.2938 10.9416C24.0609 10.9457 23.8312 10.9967 23.6185 11.0914C23.4058 11.1862 23.2143 11.3229 23.0555 11.4933L18.5 16.0488L13.9445 11.4933Z" fill="#FF5A50"/>
</svg>
